PathFileType	4	(X/Y/Z)	/Users/itak/Documents/Research/Walk-IL/dataset/trc/00073_00006.trc
DataRate	CameraRate	NumFrames	NumMarkers	Units	OrigDataRate	OrigDataStartFrame	OrigNumFrames
100.000000	100.000000	4	53	mm	100.000000	91	735
Frame#	Time	RPSI			LPSI			L3			STRN			T10			C7			CLAV			RBAK			LBAK			LSHO			LUPA			LAEL			LAOL			LWTS			LWPS			LFRA			LIFD			LHPS			LHTS			RSHO			RUPA			RAEL			RWTS			RWPS			RFRA			RIFD			RHTS			RHPS			RBHD			LFHD			RFHD			LBHD			LHIP			RHIP			RASI			LASI			LKNE			LTHI			LANK			LTIP			LTOE			LMT1			LMT5			LHEE			RKNE			RTHI			RANK			RTIP			RTOE			RMT1			RMT5			RHEE			RAOL			
		X1	Y1	Z1	X2	Y2	Z2	X3	Y3	Z3	X4	Y4	Z4	X5	Y5	Z5	X6	Y6	Z6	X7	Y7	Z7	X8	Y8	Z8	X9	Y9	Z9	X10	Y10	Z10	X11	Y11	Z11	X12	Y12	Z12	X13	Y13	Z13	X14	Y14	Z14	X15	Y15	Z15	X16	Y16	Z16	X17	Y17	Z17	X18	Y18	Z18	X19	Y19	Z19	X20	Y20	Z20	X21	Y21	Z21	X22	Y22	Z22	X23	Y23	Z23	X24	Y24	Z24	X25	Y25	Z25	X26	Y26	Z26	X27	Y27	Z27	X28	Y28	Z28	X29	Y29	Z29	X30	Y30	Z30	X31	Y31	Z31	X32	Y32	Z32	X33	Y33	Z33	X34	Y34	Z34	X35	Y35	Z35	X36	Y36	Z36	X37	Y37	Z37	X38	Y38	Z38	X39	Y39	Z39	X40	Y40	Z40	X41	Y41	Z41	X42	Y42	Z42	X43	Y43	Z43	X44	Y44	Z44	X45	Y45	Z45	X46	Y46	Z46	X47	Y47	Z47	X48	Y48	Z48	X49	Y49	Z49	X50	Y50	Z50	X51	Y51	Z51	X52	Y52	Z52	X53	Y53	Z53	

92	0.91	298.4906921386719	1030.742797851562	1007.437194824219	311.0093383789062	1026.471313476562	1183.11962890625	303.0660095214844	1083.490112304688	1099.343383789062	55.71966171264648	1284.030639648438	1091.924926757812	323.3380432128906	1218.66845703125	1097.434814453125	264.8451232910156	1485.45947265625	1094.367309570312	86.28691101074219	1398.044555664062	1091.179321289062	327.2039794921875	1344.999755859375	1022.024597167969	285.7903442382812	1450.052124023438	1196.20263671875	181.9168243408203	1456.63525390625	1267.790771484375	197.2299041748047	1329.922485351562	1346.838012695312	174.9199981689453	1114.081298828125	1364.606689453125	239.4559326171875	1099.757568359375	1280.760131835938	76.28250885009766	879.1952514648438	1291.666015625	132.4056091308594	864.2650146484375	1351.3564453125	149.9578399658203	1004.903747558594	1368.909423828125	57.64647674560547	698.3339233398438	1262.18017578125	94.60139465332031	784.6096801757812	1342.81591796875	47.0698127746582	799.0945434570312	1292.388305664062	202.7314453125	1444.8232421875	917.8740844726562	213.3409423828125	1374.494873046875	855.4794311523438	236.4896697998047	1106.685180664062	834.45947265625	89.4505615234375	858.63232421875	877.51318359375	159.0583953857422	841.0180053710938	828.2117309570312	222.0654602050781	1027.21826171875	830.1156005859375	88.1318359375	673.726318359375	908.2269897460938	62.72798156738281	756.4691772460938	879.7134399414062	120.6233673095703	751.2747802734375	827.1968383789062	223.2645416259766	1664.083251953125	1158.24609375	76.77397155761719	1696.645385742188	1003.455932617188	53.76670837402344	1710.286743164062	1126.65380859375	238.779541015625	1643.0458984375	1023.1767578125	208.8612060546875	967.2559814453125	1277.525634765625	229.7301177978516	960.7703857421875	932.8369140625	106.3424987792969	976.7437133789062	954.4061279296875	96.21331787109375	974.0057373046875	1223.297119140625	130.5356292724609	501.7379760742188	1226.314575195312	165.328369140625	641.560546875	1263.96435546875	266.7782287597656	50.28313446044922	1248.970581054688	204.2671966552734	263.1875305175781	1249.64208984375	61.49282455444336	55.17365646362305	1242.807006835938	109.1360397338867	47.79541778564453	1189.787231445312	164.6630096435547	46.86832809448242	1287.324340820312	316.5180358886719	44.46378707885742	1171.6201171875	165.6240081787109	516.4237670898438	950.549560546875	151.4741821289062	786.1835327148438	924.5354614257812	273.1914672851562	40.83829879760742	952.1707763671875	190.9994049072266	394.3530883789062	942.96875	59.1782341003418	49.81198501586914	990.8317260742188	119.661262512207	48.64982604980469	1031.1767578125	149.6798095703125	48.53586959838867	938.55859375	321.0314025878906	40.88558578491211	1009.006713867188	220.8095703125	1088.746215820312	930.8900756835938	
93	0.92	296.9595336914062	1030.385009765625	1008.372741699219	309.399658203125	1026.165161132812	1184.090942382812	301.5851745605469	1083.156005859375	1100.3115234375	54.44253158569336	1283.892211914062	1092.705810546875	322.1887512207031	1218.348266601562	1098.462036132812	263.7551879882812	1485.18408203125	1095.134765625	85.18094635009766	1397.8505859375	1091.93408203125	326.0650634765625	1344.589477539062	1022.943725585938	284.5760192871094	1449.850341796875	1196.988891601562	180.6668395996094	1456.559326171875	1268.545166015625	196.0827789306641	1329.882690429688	1347.697631835938	173.9661254882812	1113.946044921875	1365.402954101562	238.6109924316406	1099.75439453125	1281.622802734375	75.48832702636719	879.09716796875	1291.784912109375	131.5358276367188	864.0851440429688	1351.609008789062	149.0951690673828	1004.717590332031	1369.49365234375	57.2427978515625	698.3092651367188	1261.901733398438	93.87461090087891	784.345458984375	1342.782958984375	46.43254852294922	798.8869018554688	1292.344482421875	201.7677459716797	1444.35498046875	918.6283569335938	212.3907928466797	1373.964111328125	856.332763671875	235.8640441894531	1106.333984375	835.1303100585938	89.02818298339844	858.06396484375	877.3689575195312	158.7881317138672	840.6395874023438	828.2007446289062	221.6082458496094	1026.867919921875	830.6250610351562	87.92516326904297	673.0789184570312	907.7083740234375	62.46557235717773	755.8484497070312	879.3114624023438	120.4951934814453	750.8551025390625	826.9386596679688	221.5563049316406	1663.920654296875	1159.001586914062	75.58915710449219	1696.296997070312	1003.672058105469	52.11515426635742	1709.923706054688	1126.783569335938	237.5953521728516	1642.868041992188	1024.001708984375	207.1693878173828	967.0501098632812	1278.486328125	228.0833435058594	960.600341796875	933.7598266601562	104.7426300048828	976.6976318359375	955.2891235351562	94.6314697265625	973.8739013671875	1224.135986328125	129.6892700195312	501.4747924804688	1226.964233398438	164.2078247070312	641.3623657226562	1264.690795898438	266.7546997070312	50.14930725097656	1249.082153320312	203.929931640625	262.9720764160156	1250.0478515625	61.6756591796875	54.8978385925293	1243.234497070312	109.1486206054688	47.73654174804688	1190.133056640625	164.7276000976562	46.58333206176758	1287.611450195312	316.5217590332031	44.50273895263672	1171.69287109375	164.9747467041016	516.3626098632812	950.9689331054688	150.1540069580078	786.1317749023438	925.314697265625	273.1924133300781	40.83855819702148	952.1611328125	190.6532287597656	394.3708801269531	943.3303833007812	59.29190063476562	49.53237533569336	990.8480834960938	119.6568450927734	48.45909881591797	1031.166870117188	149.6824798583984	48.4411506652832	938.4960327148438	321.0242309570312	40.92814254760742	1009.007507324219	219.8065948486328	1088.223266601562	931.477783203125	
94	0.93	295.2952880859375	1030.0771484375	1009.289306640625	307.7286682128906	1025.916870117188	1185.0498046875	299.9793701171875	1082.847778320312	1101.271850585938	53.05967330932617	1283.79833984375	1093.512084960938	320.9621887207031	1218.0380859375	1099.52978515625	262.5971374511719	1484.91455078125	1095.977783203125	83.99759674072266	1397.687133789062	1092.7333984375	324.8639221191406	1344.200927734375	1023.940795898438	283.2637329101562	1449.66748046875	1197.84912109375	179.3243560791016	1456.530151367188	1269.363525390625	194.8017120361328	1329.908569335938	1348.63037109375	172.8779602050781	1113.865966796875	1366.25634765625	237.6368255615234	1099.820434570312	1282.545166015625	74.59439849853516	879.0073852539062	1291.9697265625	130.5734405517578	863.9686279296875	1351.946411132812	148.1029815673828	1004.589721679688	1370.14208984375	56.89761352539062	698.26220703125	1261.7197265625	93.11713409423828	784.1395263671875	1342.882446289062	45.77800369262695	798.6879272460938	1292.374633789062	200.7671051025391	1443.93505859375	919.4503173828125	211.4205017089844	1373.471435546875	857.2704467773438	235.2596130371094	1106.036254882812	835.95263671875	88.61212158203125	857.5371704101562	877.1821899414062	158.5863647460938	840.3213500976562	828.218994140625	221.1496887207031	1026.584350585938	831.2546997070312	87.80467987060547	672.4284057617188	907.1273193359375	62.24421310424805	755.2509765625	878.8286743164062	120.4643173217773	750.48583984375	826.6583862304688	219.7102203369141	1663.804443359375	1159.832153320312	74.34991455078125	1695.9462890625	1003.872436523438	50.33786010742188	1709.572631835938	1126.876342773438	236.3505401611328	1642.716918945312	1024.9169921875	205.4571685791016	966.8602294921875	1279.458862304688	226.3168029785156	960.4512329101562	934.6651000976562	103.0278015136719	976.6401977539062	956.2122192382812	92.99831390380859	973.7526245117188	1224.997192382812	128.8564758300781	501.2218017578125	1227.688720703125	163.0684509277344	641.1819458007812	1265.475952148438	266.7254028320312	49.99738311767578	1249.208618164062	203.6376037597656	262.7698669433594	1250.5224609375	61.84038162231445	54.49274063110352	1243.796752929688	109.116096496582	47.63169479370117	1190.5791015625	164.7968902587891	46.23056030273438	1287.971801757812	316.5047607421875	44.55623245239258	1171.784057617188	164.1486511230469	516.2769165039062	951.5317993164062	148.6870422363281	786.0621337890625	926.1797485351562	273.170166015625	40.8411750793457	952.1638793945312	190.1657409667969	394.3693237304688	943.7669677734375	59.37938690185547	49.1303596496582	990.90771484375	119.6370391845703	48.23041534423828	1031.187622070312	149.6354064941406	48.31650924682617	938.458251953125	321.0118713378906	40.99203491210938	1009.005798339844	218.6662445068359	1087.764282226562	932.1997680664062	
95	0.9400000000000001	293.5182800292969	1029.824829101562	1010.186584472656	306.0221557617188	1025.70849609375	1185.990844726562	298.2696228027344	1082.571166992188	1102.2236328125	51.57659149169922	1283.738525390625	1094.35205078125	319.6484069824219	1217.738159179688	1100.63525390625	261.3568725585938	1484.65234375	1096.895751953125	82.73025512695312	1397.553344726562	1093.570190429688	323.60205078125	1343.836303710938	1025.016967773438	281.8413391113281	1449.503173828125	1198.782836914062	177.8831634521484	1456.539428710938	1270.2431640625	193.3793792724609	1329.990234375	1349.635498046875	171.6521453857422	1113.833129882812	1367.174682617188	236.5285034179688	1099.946044921875	1283.540283203125	73.61383056640625	878.9287719726562	1292.233764648438	129.5169525146484	863.9127807617188	1352.368041992188	146.9639739990234	1004.511047363281	1370.857788085938	56.57662963867188	698.1905517578125	1261.630493164062	92.31439971923828	783.9954223632812	1343.108032226562	45.09299850463867	798.5045776367188	1292.476806640625	199.7250518798828	1443.563354492188	920.3410034179688	210.4382171630859	1373.021362304688	858.2943725585938	234.6847534179688	1105.794555664062	836.919921875	88.19764709472656	857.0572509765625	876.951171875	158.4596710205078	840.0642700195312	828.2761840820312	220.7013244628906	1026.367797851562	832.001953125	87.74235534667969	671.7993774414062	906.4967651367188	62.06412124633789	754.6845092773438	878.2724609375	120.5309753417969	750.1657104492188	826.3656616210938	217.7222290039062	1663.734619140625	1160.736206054688	73.05645751953125	1695.592407226562	1004.055358886719	48.43483352661133	1709.238891601562	1126.92724609375	235.0395812988281	1642.589111328125	1025.922119140625	203.7561340332031	966.6712036132812	1280.441772460938	224.4539947509766	960.325927734375	935.548583984375	101.230842590332	976.5670776367188	957.1907348632812	91.3372802734375	973.6277465820312	1225.893310546875	128.0071258544922	500.9681701660156	1228.478149414062	161.9032287597656	641.009033203125	1266.308959960938	266.6899108886719	49.83522033691406	1249.345092773438	203.3524932861328	262.5740966796875	1251.044189453125	61.96064376831055	53.95822906494141	1244.457763671875	109.0359344482422	47.47919464111328	1191.088134765625	164.8575744628906	45.81805038452148	1288.382202148438	316.4674377441406	44.62435531616211	1171.891479492188	163.0877075195312	516.1629028320312	952.25244140625	147.0716400146484	785.9742431640625	927.135009765625	273.1304626464844	40.83847808837891	952.1736450195312	189.4780426025391	394.3433532714844	944.2730102539062	59.43156051635742	48.63838958740234	990.9938354492188	119.6091918945312	47.98564529418945	1031.232055664062	149.5435180664062	48.16310882568359	938.4381713867188	320.9960327148438	41.07284164428711	1008.998962402344	217.4200592041016	1087.3701171875	933.0505981445312	
